<svg width="66" height="57" viewBox="0 0 66 57" fill="none" xmlns="http://www.w3.org/2000/svg">
<path fill-rule="evenodd" clip-rule="evenodd" d="M29.1874 36.462L36.4615 29.1879C37.0939 28.5553 38.1255 28.5553 38.7581 29.1877L46.0325 36.4617C46.6651 37.0943 46.6651 38.126 46.0325 38.7586L37.6099 47.181L29.1874 55.6036C28.5549 56.2362 27.5231 56.2362 26.8906 55.6036L18.468 47.181L0.474384 29.1877C-0.158048 28.5553 -0.158208 27.5234 0.474384 26.8909L7.74879 19.6165C8.38122 18.9841 9.41299 18.9841 10.0454 19.6165L26.8907 36.4618C27.5232 37.0943 28.5549 37.0943 29.1874 36.462V36.462Z" fill="#4FBCFF"/>
<path fill-rule="evenodd" clip-rule="evenodd" d="M36.3376 19.6161L29.0635 26.8901C28.4311 27.5227 27.3994 27.5227 26.7669 26.8903L19.4924 19.6164C18.8599 18.9838 18.8599 17.952 19.4924 17.3194L27.915 8.89702L36.3376 0.474444C36.97 -0.158148 38.0018 -0.158148 38.6344 0.474444L47.0569 8.89702L65.0506 26.8903C65.683 27.5227 65.6831 28.5547 65.0506 29.1871L57.7761 36.4615C57.1437 37.0939 56.1119 37.0939 55.4795 36.4615L38.6342 19.6162C38.0018 18.9838 36.97 18.9838 36.3376 19.6161V19.6161Z" fill="#FF4172"/>
</svg>
